<?xml version="1.0"?>
<svg width="100" height="50" xmlns="http://www.w3.org/2000/svg" xmlns:svg="http://www.w3.org/2000/svg" xmlns:xlink="http://www.w3.org/1999/xlink">
 <!-- Created with SVG-edit - https://github.com/SVG-Edit/svgedit-->
 <defs>
  <symbol id="svg_1" viewBox="0 0 1000 1000" xmlns="http://www.w3.org/2000/svg">
   <defs>
    <style>.a{font-size:30.47px;font-family:RedHatDisplay-Medium, Red Hat Display;font-weight:500;letter-spacing:0.12em;}.b{letter-spacing:0.25em;}.c{letter-spacing:0.22em;}.d{letter-spacing:0.24em;}.e{letter-spacing:0.25em;}.f{letter-spacing:0.21em;}.g{letter-spacing:0.25em;}.h{letter-spacing:0.25em;}.i{fill:#27aae1;}</style>
   </defs>
   <rect height="108" width="20.13" x="403.31" y="398.27"/>
   <path d="m539.27,472.43c0,20.34 -17.15,33.84 -42.5,33.84c-25.6,0 -43,-13.5 -43,-33.84l0,-40.5c0,-20.16 17.4,-33.66 43,-33.66c25.35,0 42.5,13.5 42.5,33.66l0,2.31l-20.13,0l0,-2.88c0,-10.65 -8.45,-17.87 -22.37,-17.87c-14.17,0 -22.87,7.22 -22.87,17.87l0,41.83c0,10.65 8.7,17.87 22.87,17.87c13.92,0 22.37,-7.22 22.37,-17.87l0,-2.89l20.13,0l0,2.13z"/>
   <path d="m649.13,430.63l0,75.64l-19.88,0l0,-73.53c0,-10.75 -8.45,-17.86 -21.88,-17.86s-21.87,7.12 -21.87,17.86l0,73.53l-20.13,0l0,-144l20.13,0l0,46.28a34.77,34.77 0 0 1 25.43,-10.28c20.88,0 38.2,12 38.2,32.36z"/>
   <path d="m764.45,398.27l0,105.67l-19.88,0l0,-7c-6.21,6 -15.16,9.32 -26.84,9.32c-21.13,0 -37,-10.87 -37,-33.6l0,-74.4l19.89,0l0,74.4c0,10.88 8.7,18.06 21.87,18.06c13.42,0 22.12,-7.18 22.12,-18.06l0,-74.4l19.84,0.01z"/>
   <path d="m792.29,474.57l0,-3.24l20.13,0l0,4c0,9.35 9,15.66 22.37,15.66c13.18,0 21.38,-6.5 21.38,-15.66c0,-9.36 -8.45,-16 -21.62,-16c-25.61,0 -42.26,-12.23 -42.26,-30.56c0,-18.52 16.65,-30.93 42.26,-30.93c25.1,0 41.75,12.6 41.75,31.7l0,3.05l-20.13,0l0,-3.82c0,-9.55 -8.45,-15.66 -21.62,-15.66c-13.68,0 -22.13,6.5 -22.13,15.66c0,9.55 8.45,16 22.13,16c25.1,0 41.75,12.22 41.75,30.56c0,18.52 -16.4,30.93 -41.51,30.93c-25.6,0.01 -42.5,-12.59 -42.5,-31.69z"/>
   <text class="a" transform="translate(246.3 542.27) scale(1.3 1)">Y
    <tspan class="b" x="24.04" y="0">ou D</tspan>
    <tspan class="c" x="118.64" y="0">r</tspan>
    <tspan class="d" x="136.68" y="0">e</tspan>
    <tspan class="e" x="161.54" y="0">am,</tspan>
    <tspan class="f" x="248.95" y="0">W</tspan>
    <tspan class="g" x="282.86" y="0">e D</tspan>
    <tspan class="h" x="351.68" y="0">e</tspan>
    <tspan class="b" x="376.91" y="0">sign</tspan></text>
   <path class="i" d="m229.07,485.31c-3.36,6.48 -7,13.67 -11.16,21c-4.52,-7.47 -9.11,-15.83 -13.59,-23.25l0,0q-6.63,-11 -13.22,-21.9c-12.32,-20.39 -24.94,-42.19 -37.5,-63c9.11,0 17.26,-0.08 25.39,0.12c0.83,0 1.76,1.64 2.38,2.67c7.37,12.17 15,25.74 22.4,37.92q6.63,11 13.23,21.95q5.85,9.74 11.69,19.48a6.11,6.11 0 0 1 0.38,5.01z"/>
   <path class="i" d="m252.41,444.17c-3.57,6.69 -7.38,13.25 -11.6,20.71l-13.45,-22.26l12.69,-22.24q6,10 12,20a4.63,4.63 0 0 1 0.36,3.79z"/>
   <path class="i" d="m278.42,398.29c-4.91,8.62 -9.61,17.18 -14.64,26l-13.36,-22.12l2.06,-3.9l25.94,0.02z"/>
   <path d="m427.32,362.34c-4.91,8.62 -9.49,16.68 -14.53,25.52c-4.58,-7.6 -8.85,-14.67 -13.35,-22.12l1.94,-3.4l25.94,0z"/>
   <path d="m375.19,432.07l0,72.38l-19.88,0l0,-7.45c-6.47,6.3 -17.53,9.27 -30.71,9.27c-40.88,0 -35.46,0.67 -36,-27c-0.33,-17 -2,-24.47 22.71,-26.38c22.1,-1.71 44,-5.92 44,-19.1l0,-2.29c0,-10.69 -8.95,-17.95 -23.12,-17.95c-13.92,0 -22.37,7.26 -22.37,17.95l0,3.25l-20.13,0l0,-2.68c0,-20.24 17.15,-33.8 42.5,-33.8c25.6,0 43,13.56 43,33.8zm-19.88,40.49l0,-17.76c-11.27,4 -21.05,5.82 -32.07,8.21c-9.3,2 -16.15,6.3 -16.15,14.32c0,8.6 8.2,14.9 22.86,14.9c15.91,0 25.36,-2.23 25.36,-19.67z"/>
  </symbol>
 </defs>
 <g class="layer">
  <title>Layer 1</title>
  <use id="svg_2" transform="matrix(2.44039 0 0 3.0596 -87.5245 -40.7598)" x="5.93" xlink:href="#svg_1" y="-0.72"/>
 </g>
</svg>