<svg xmlns="http://www.w3.org/2000/svg" viewBox="0 0 722.7 186.52"><defs><style>.a,.b{fill:#fff;}.b{font-size:30.47px;font-family:RedHatDisplay-Medium, Red Hat Display;font-weight:500;letter-spacing:0.12em;}.c{letter-spacing:0.25em;}.d{letter-spacing:0.22em;}.e{letter-spacing:0.24em;}.f{letter-spacing:0.25em;}.g{letter-spacing:0.21em;}.h{letter-spacing:0.25em;}.i{letter-spacing:0.25em;}.j{fill:#27aae1;}</style></defs><rect class="a" x="249.71" y="36" width="20.13" height="108"/><path class="a" d="M385.67,110.15c0,20.35-17.15,33.85-42.51,33.85-25.6,0-43-13.5-43-33.85V69.66c0-20.16,17.4-33.66,43-33.66,25.36,0,42.51,13.5,42.51,33.66V72H365.53V69.08c0-10.64-8.45-17.87-22.37-17.87-14.16,0-22.86,7.23-22.86,17.87v41.83c0,10.65,8.7,17.88,22.86,17.88,13.92,0,22.37-7.23,22.37-17.88V108h20.14Z"/><path class="a" d="M495.53,68.35V144H475.64V70.46c0-10.75-8.45-17.85-21.87-17.85s-21.87,7.1-21.87,17.85V144H411.77V0H431.9V46.27A34.8,34.8,0,0,1,457.33,36C478.21,36,495.53,48,495.53,68.35Z"/><path class="a" d="M610.85,36V141.67H591v-7c-6.22,6-15.16,9.32-26.85,9.32-21.12,0-37-10.88-37-33.6V36H547v74.4c0,10.87,8.7,18.06,21.88,18.06,13.42,0,22.12-7.19,22.12-18.06V36Z"/><path class="a" d="M638.69,112.3v-3.25h20.13v4c0,9.36,8.95,15.66,22.37,15.66,13.17,0,21.38-6.49,21.38-15.66,0-9.35-8.46-16-21.63-16-25.6,0-42.25-12.22-42.25-30.55,0-18.53,16.65-30.94,42.25-30.94,25.11,0,41.76,12.61,41.76,31.7v3.06H702.57V66.47c0-9.55-8.46-15.66-21.63-15.66-13.67,0-22.12,6.49-22.12,15.66,0,9.55,8.45,16,22.12,16,25.11,0,41.76,12.22,41.76,30.55,0,18.53-16.41,30.94-41.51,30.94C655.59,144,638.69,131.4,638.69,112.3Z"/><text class="b" transform="translate(92.7 180) scale(1.3 1)">Y<tspan class="c" x="24.04" y="0">ou D</tspan><tspan class="d" x="118.64" y="0">r</tspan><tspan class="e" x="136.68" y="0">e</tspan><tspan class="f" x="161.54" y="0">am, </tspan><tspan class="g" x="248.95" y="0">W</tspan><tspan class="h" x="282.86" y="0">e D</tspan><tspan class="i" x="351.68" y="0">e</tspan><tspan class="c" x="376.91" y="0">sign </tspan></text><path class="j" d="M75.47,123c-3.36,6.47-7,13.66-11.16,21-4.52-7.47-9.11-15.83-13.59-23.25h0L37.49,98.85C25.18,78.46,12.56,56.66,0,35.87c9.11,0,17.25-.08,25.39.12.82,0,1.75,1.64,2.38,2.67,7.37,12.17,15.05,25.74,22.4,37.92q6.63,11,13.22,21.94,5.86,9.74,11.69,19.48A6.09,6.09,0,0,1,75.47,123Z"/><path class="j" d="M98.81,81.9c-3.57,6.69-7.38,13.25-11.6,20.71L73.76,80.35,86.45,58.11q6,10,12,20A4.67,4.67,0,0,1,98.81,81.9Z"/><path class="j" d="M124.81,36c-4.9,8.62-9.6,17.18-14.64,26-4.58-7.6-8.86-14.67-13.35-22.12L98.88,36Z"/><path class="a" d="M273.71.06,259.19,25.59c-4.59-7.6-8.86-14.67-13.35-22.12L247.78.06Z"/><path class="a" d="M221.59,69.8v72.38H201.7v-7.45C195.24,141,184.17,144,171,144c-40.88,0-35.46.67-36-27-.33-17-2-24.47,22.71-26.38,22.1-1.72,44-5.92,44-19.1V69.23c0-10.7-8.94-18-23.11-18-13.92,0-22.37,7.25-22.37,18v3.24H136.09V69.8c0-20.24,17.15-33.8,42.5-33.8C204.19,36,221.59,49.56,221.59,69.8ZM201.7,110.29V92.53c-11.26,4-21,5.82-32.06,8.21-9.31,2-16.16,6.3-16.16,14.32,0,8.59,8.21,14.89,22.87,14.89C192.26,130,201.7,127.74,201.7,110.29Z"/></svg>