<svg xmlns="http://www.w3.org/2000/svg" viewBox="0 0 1000 1000"><defs><style>.a{font-size:30.47px;font-family:RedHatDisplay-Medium, Red Hat Display;font-weight:500;letter-spacing:0.12em;}.b{letter-spacing:0.25em;}.c{letter-spacing:0.22em;}.d{letter-spacing:0.24em;}.e{letter-spacing:0.25em;}.f{letter-spacing:0.21em;}.g{letter-spacing:0.25em;}.h{letter-spacing:0.25em;}.i{fill:#27aae1;}</style></defs><rect x="403.31" y="398.27" width="20.13" height="108"/><path d="M539.27,472.43c0,20.34-17.15,33.84-42.5,33.84-25.6,0-43-13.5-43-33.84v-40.5c0-20.16,17.4-33.66,43-33.66,25.35,0,42.5,13.5,42.5,33.66v2.31H519.14v-2.88c0-10.65-8.45-17.87-22.37-17.87-14.17,0-22.87,7.22-22.87,17.87v41.83c0,10.65,8.7,17.87,22.87,17.87,13.92,0,22.37-7.22,22.37-17.87V470.3h20.13Z"/><path d="M649.13,430.63v75.64H629.25V432.74c0-10.75-8.45-17.86-21.88-17.86S585.5,422,585.5,432.74v73.53H565.37v-144H585.5v46.28a34.77,34.77,0,0,1,25.43-10.28C631.81,398.27,649.13,410.27,649.13,430.63Z"/><path d="M764.45,398.27V503.94H744.57v-7c-6.21,6-15.16,9.32-26.84,9.32-21.13,0-37-10.87-37-33.6v-74.4h19.89v74.4c0,10.88,8.7,18.06,21.87,18.06,13.42,0,22.12-7.18,22.12-18.06v-74.4Z"/><path d="M792.29,474.57v-3.24h20.13v4c0,9.35,9,15.66,22.37,15.66,13.18,0,21.38-6.5,21.38-15.66,0-9.36-8.45-16-21.62-16-25.61,0-42.26-12.23-42.26-30.56,0-18.52,16.65-30.93,42.26-30.93,25.1,0,41.75,12.6,41.75,31.7v3.05H856.17v-3.82c0-9.55-8.45-15.66-21.62-15.66-13.68,0-22.13,6.5-22.13,15.66,0,9.55,8.45,16,22.13,16,25.1,0,41.75,12.22,41.75,30.56,0,18.52-16.4,30.93-41.51,30.93C809.19,506.27,792.29,493.67,792.29,474.57Z"/><text class="a" transform="translate(246.3 542.27) scale(1.3 1)">Y<tspan class="b" x="24.04" y="0">ou D</tspan><tspan class="c" x="118.64" y="0">r</tspan><tspan class="d" x="136.68" y="0">e</tspan><tspan class="e" x="161.54" y="0">am, </tspan><tspan class="f" x="248.95" y="0">W</tspan><tspan class="g" x="282.86" y="0">e D</tspan><tspan class="h" x="351.68" y="0">e</tspan><tspan class="b" x="376.91" y="0">sign </tspan></text><path class="i" d="M229.07,485.31c-3.36,6.48-7,13.67-11.16,21-4.52-7.47-9.11-15.83-13.59-23.25h0q-6.63-11-13.22-21.9c-12.32-20.39-24.94-42.19-37.5-63,9.11,0,17.26-.08,25.39.12.83,0,1.76,1.64,2.38,2.67,7.37,12.17,15,25.74,22.4,37.92q6.63,11,13.23,21.95,5.85,9.74,11.69,19.48A6.11,6.11,0,0,1,229.07,485.31Z"/><path class="i" d="M252.41,444.17c-3.57,6.69-7.38,13.25-11.6,20.71l-13.45-22.26,12.69-22.24q6,10,12,20A4.63,4.63,0,0,1,252.41,444.17Z"/><path class="i" d="M278.42,398.29c-4.91,8.62-9.61,17.18-14.64,26l-13.36-22.12,2.06-3.9Z"/><path d="M427.32,362.34c-4.91,8.62-9.49,16.68-14.53,25.52-4.58-7.6-8.85-14.67-13.35-22.12l1.94-3.4Z"/><path d="M375.19,432.07v72.38H355.31V497c-6.47,6.3-17.53,9.27-30.71,9.27-40.88,0-35.46.67-36-27-.33-17-2-24.47,22.71-26.38,22.1-1.71,44-5.92,44-19.1V431.5c0-10.69-8.95-17.95-23.12-17.95-13.92,0-22.37,7.26-22.37,17.95v3.25H289.69v-2.68c0-20.24,17.15-33.8,42.5-33.8C357.79,398.27,375.19,411.83,375.19,432.07Zm-19.88,40.49V454.8c-11.27,4-21.05,5.82-32.07,8.21-9.3,2-16.15,6.3-16.15,14.32,0,8.6,8.2,14.9,22.86,14.9C345.86,492.23,355.31,490,355.31,472.56Z"/></svg>