<svg xmlns="http://www.w3.org/2000/svg" viewBox="0 0 1000 1000"><defs><style>.a{fill:#27aae1;}</style></defs><path class="a" d="M586,754.26c-17.83,34.39-37.22,72.61-59.31,111.38-24-39.72-48.4-84.15-72.21-123.57h0L384.21,625.71C318.78,517.35,251.7,401.5,185,291c48.42,0,91.69-.42,134.93.64,4.36.11,9.32,8.7,12.64,14.19,39.16,64.67,79.95,136.79,119,201.5Q486.79,565.64,521.85,624,553,675.69,584,727.5C588.18,734.54,589.57,747.37,586,754.26Z"/><path class="a" d="M710.06,535.62c-19,35.55-39.23,70.42-61.67,110.07L576.94,527.4l67.41-118.19q32.05,52.94,63.72,106.1C711.3,520.73,712.78,530.52,710.06,535.62Z"/><path class="a" d="M848.23,291.81c-26.06,45.81-51,91.29-77.78,138.29l-71-117.54,10.94-20.75Z"/></svg>