<svg width="74" height="74" viewBox="0 0 74 74" fill="none" xmlns="http://www.w3.org/2000/svg">
<path d="M55.5678 68.9414H40.0352V68.0742C40.0352 67.4754 39.5498 66.9902 38.9512 66.9902H35.0488C34.4502 66.9902 33.9648 67.4754 33.9648 68.0742V68.9414H7.94922V67.1348C7.94922 66.536 7.46388 66.0508 6.86523 66.0508H5.05859V40.0352H5.92578C6.52443 40.0352 7.00977 39.55 7.00977 38.9512V35.0488C7.00977 34.45 6.52443 33.9648 5.92578 33.9648H5.05859V7.94922H6.86523C7.46388 7.94922 7.94922 7.46403 7.94922 6.86523V5.05859H13.952C14.5507 5.05859 15.036 4.5734 15.036 3.97461C15.036 3.37582 14.5507 2.89062 13.952 2.89062H7.94922V1.08398C7.94922 0.485191 7.46388 0 6.86523 0H1.08398C0.485336 0 0 0.485191 0 1.08398V6.86523C0 7.46403 0.485336 7.94922 1.08398 7.94922H2.89062V33.9648H2.02344C1.42479 33.9648 0.939453 34.45 0.939453 35.0488V38.9512C0.939453 39.55 1.42479 40.0352 2.02344 40.0352H2.89062V66.0508H1.08398C0.485336 66.0508 0 66.536 0 67.1348V72.916C0 73.5148 0.485336 74 1.08398 74H6.86523C7.46388 74 7.94922 73.5148 7.94922 72.916V71.1094H33.9648V71.9766C33.9648 72.5754 34.4502 73.0605 35.0488 73.0605H38.9512C39.5498 73.0605 40.0352 72.5754 40.0352 71.9766V71.1094H55.5678C56.1664 71.1094 56.6518 70.6242 56.6518 70.0254C56.6518 69.4266 56.1664 68.9414 55.5678 68.9414ZM2.16797 2.16797H5.78125V5.78125H2.16797V2.16797ZM3.10742 36.1328H4.8418V37.8672H3.10742V36.1328ZM5.78125 71.832H2.16797V68.2188H5.78125V71.832ZM37.8672 70.8926H36.1328V69.1582H37.8672V70.8926Z" fill="black"/>
<path d="M72.916 7.94922C73.5147 7.94922 74 7.46403 74 6.86523V1.08398C74 0.485191 73.5147 0 72.916 0H67.1348C66.5361 0 66.0508 0.485191 66.0508 1.08398V2.89062H40.0352V2.02344C40.0352 1.42464 39.5498 0.939453 38.9512 0.939453H35.0488C34.4502 0.939453 33.9648 1.42464 33.9648 2.02344V2.89062H19.164C18.5653 2.89062 18.08 3.37582 18.08 3.97461C18.08 4.5734 18.5653 5.05859 19.164 5.05859H33.9648V5.92578C33.9648 6.52457 34.4502 7.00977 35.0488 7.00977H38.9512C39.5498 7.00977 40.0352 6.52457 40.0352 5.92578V5.05859H66.0508V6.86523C66.0508 7.46403 66.5361 7.94922 67.1348 7.94922H68.9414V33.9648H68.0742C67.4756 33.9648 66.9902 34.45 66.9902 35.0488V38.9512C66.9902 39.55 67.4756 40.0352 68.0742 40.0352H68.9414V66.0508H67.1348C66.5361 66.0508 66.0508 66.536 66.0508 67.1348V68.9414H60.6346C60.036 68.9414 59.5506 69.4266 59.5506 70.0254C59.5506 70.6242 60.036 71.1094 60.6346 71.1094H66.0508V72.916C66.0508 73.5148 66.5361 74 67.1348 74H72.916C73.5147 74 74 73.5148 74 72.916V67.1348C74 66.536 73.5147 66.0508 72.916 66.0508H71.1094V40.0352H71.9766C72.5752 40.0352 73.0605 39.55 73.0605 38.9512V35.0488C73.0605 34.45 72.5752 33.9648 71.9766 33.9648H71.1094V7.94922H72.916ZM37.8672 4.8418H36.1328V3.10742H37.8672V4.8418ZM71.832 71.832H68.2187V68.2188H71.832V71.832ZM70.8926 37.8672H69.1582V36.1328H70.8926V37.8672ZM68.2187 2.16797H71.832V5.78125H68.2187V2.16797Z" fill="black"/>
<path d="M11.4594 61.5986C11.795 62.072 12.3415 62.3547 12.9215 62.3547H25.3304C26.5158 62.3547 27.591 61.6077 28.0061 60.4948L31.1614 52.0046H42.8606L45.9814 60.4849C46.3909 61.6033 47.4678 62.3548 48.6608 62.3548H61.0785C61.6589 62.3548 62.2055 62.0724 62.5408 61.5992C62.8761 61.1262 62.9617 60.5168 62.7695 59.9696L46.4869 13.5518C46.0849 12.4112 45.0028 11.645 43.7943 11.645C40.3957 11.645 33.559 11.645 30.2057 11.645C28.997 11.645 27.9149 12.4115 27.5127 13.5534L11.2306 59.9693C11.0386 60.5164 11.1241 61.1256 11.4594 61.5986ZM29.5578 14.2723C29.6546 13.9976 29.9149 13.8128 30.2056 13.8128H36.7615C36.9904 13.8228 37.2029 13.9129 37.4089 14.2709L41.4943 25.9172C41.6925 26.482 42.3111 26.7795 42.876 26.5813C43.441 26.3832 43.7383 25.7646 43.5402 25.1996L39.5458 13.8128H43.7941C44.0848 13.8128 44.3451 13.9974 44.4415 14.2709L60.5479 60.1867H55.7963C55.7807 60.1137 45.2209 29.9914 45.2209 29.9914C45.0228 29.4264 44.4039 29.1288 43.8392 29.3273C43.2742 29.5254 42.9769 30.144 43.1751 30.709L53.5153 60.1867H48.6605C48.3736 60.1867 48.1149 60.0069 48.0163 59.7378L44.6337 50.5463C44.4769 50.12 44.0706 49.8367 43.6163 49.8367H23.3753C22.9224 49.8367 22.5171 50.1184 22.3593 50.5431L21.472 52.9308C21.2634 53.492 21.5493 54.1158 22.1104 54.3245C22.6714 54.5332 23.2955 54.2472 23.5041 53.686L24.1289 52.0048H28.8486L25.9744 59.7387C25.8744 60.0068 25.6155 60.187 25.3304 60.187H21.0881L21.7307 58.458C21.9393 57.8969 21.6534 57.273 21.0923 57.0643C20.5314 56.8557 19.9071 57.1416 19.6986 57.7028L18.9417 59.7392C18.8948 59.8653 18.813 59.9737 18.7061 60.0524C18.5861 60.1403 18.4449 60.187 18.2979 60.187H13.4518L29.5578 14.2723Z" fill="black"/>
<path d="M25.7348 44.7771H41.2838C41.6353 44.7771 41.9648 44.6067 42.168 44.3201C42.3712 44.0335 42.423 43.6661 42.3066 43.3344L34.5076 21.0977C34.3551 20.6632 33.9449 20.3724 33.4846 20.3724C33.4843 20.3724 33.4838 20.3724 33.4836 20.3724C33.0228 20.3728 32.6126 20.6645 32.461 21.0997L24.7112 43.3364C24.5958 43.6678 24.6479 44.0348 24.8511 44.3209C25.0545 44.6071 25.3837 44.7771 25.7348 44.7771ZM34.2929 42.6091L37.0149 34.7973L39.7548 42.6091H34.2929ZM33.4877 24.7409L35.8631 31.5136L31.9971 42.6091H27.2605L33.4877 24.7409Z" fill="black"/>
</svg>
