<svg width="30" height="30" viewBox="0 0 30 30" fill="none" xmlns="http://www.w3.org/2000/svg">
<path d="M30 15C30 23.2843 23.2843 30 15 30C6.71573 30 0 23.2843 0 15C0 6.71573 6.71573 0 15 0C23.2843 0 30 6.71573 30 15Z" fill="#27AAE1"/>
<g clip-path="url(#clip0_207_3115)">
<path d="M13.6129 9.36078C11.5492 9.84194 9.88801 11.4785 9.38072 13.5301C8.87184 15.5882 9.45424 17.6861 10.9387 19.1418C11.4638 19.6568 11.7773 20.4822 11.7773 21.3498V21.4883C11.7773 22.0596 12.0266 22.5737 12.4219 22.9279V24.0664C12.4219 25.1326 13.2893 26 14.3555 26H15.6445C16.7107 26 17.5781 25.1326 17.5781 24.0664V22.9279C17.9734 22.5737 18.2227 22.0596 18.2227 21.4883V21.3473C18.2227 20.4929 18.553 19.6518 19.1062 19.0974C20.199 18.0022 20.8008 16.5471 20.8008 15C20.8008 11.3013 17.3732 8.4843 13.6129 9.36078ZM16.2891 24.0664C16.2891 24.4218 15.9999 24.7109 15.6445 24.7109H14.3555C14.0001 24.7109 13.7109 24.4218 13.7109 24.0664V23.4219H16.2891V24.0664ZM18.1937 18.1868C17.3929 18.9893 16.9336 20.1413 16.9336 21.3473V21.4883C16.9336 21.8437 16.6445 22.1328 16.2891 22.1328H13.7109C13.3555 22.1328 13.0664 21.8437 13.0664 21.4883V21.3498C13.0664 20.1252 12.6198 18.985 11.8412 18.2215C10.6858 17.0884 10.2338 15.4503 10.6321 13.8395C11.0241 12.2536 12.3091 10.9884 13.9056 10.6162C16.8563 9.92814 19.5117 12.1309 19.5117 15C19.5117 16.2033 19.0436 17.335 18.1937 18.1868Z" fill="white"/>
<path d="M9.98671 9.07521L8.16368 7.25222C7.91201 7.00051 7.50389 7.00051 7.25218 7.25222C7.00047 7.50393 7.00047 7.912 7.25218 8.16371L9.07522 9.98671C9.32689 10.2384 9.73505 10.2384 9.98671 9.98671C10.2384 9.73499 10.2384 9.32692 9.98671 9.07521Z" fill="white"/>
<path d="M7.26562 14.3555H4.64453C4.28858 14.3555 4 14.644 4 15C4 15.356 4.28858 15.6445 4.64453 15.6445H7.26562C7.62158 15.6445 7.91016 15.356 7.91016 15C7.91016 14.644 7.62158 14.3555 7.26562 14.3555Z" fill="white"/>
<path d="M25.3555 14.3555H22.7344C22.3784 14.3555 22.0898 14.644 22.0898 15C22.0898 15.356 22.3784 15.6445 22.7344 15.6445H25.3555C25.7114 15.6445 26 15.356 26 15C26 14.644 25.7114 14.3555 25.3555 14.3555Z" fill="white"/>
<path d="M22.7478 7.25222C22.4962 7.00051 22.0881 7.00051 21.8363 7.25222L20.0133 9.07521C19.7616 9.32688 19.7616 9.73499 20.0133 9.98671C20.265 10.2384 20.6731 10.2384 20.9248 9.98671L22.7478 8.16371C22.9995 7.91205 22.9995 7.50393 22.7478 7.25222Z" fill="white"/>
<path d="M15 4C14.644 4 14.3555 4.28858 14.3555 4.64453V7.26562C14.3555 7.62158 14.644 7.91016 15 7.91016C15.356 7.91016 15.6445 7.62158 15.6445 7.26562V4.64453C15.6445 4.28858 15.356 4 15 4Z" fill="white"/>
<path d="M15 11.7773C14.7351 11.7773 14.4652 11.8091 14.1983 11.8716C13.0869 12.131 12.1565 13.0459 11.8832 14.1481C11.7975 14.4936 12.0081 14.8431 12.3536 14.9288C12.6991 15.0145 13.0486 14.8038 13.1343 14.4584C13.2916 13.8242 13.8496 13.2767 14.4918 13.1268C14.6629 13.0867 14.8339 13.0664 15 13.0664C15.356 13.0664 15.6445 12.7778 15.6445 12.4219C15.6445 12.0659 15.356 11.7773 15 11.7773Z" fill="white"/>
</g>
<defs>
<clipPath id="clip0_207_3115">
<rect width="22" height="22" fill="white" transform="translate(4 4)"/>
</clipPath>
</defs>
</svg>
