<svg width="57" height="57" viewBox="0 0 57 57" fill="none" xmlns="http://www.w3.org/2000/svg">
<g clip-path="url(#clip0_207_1701)">
<path d="M45.3105 0H11.6895C5.24389 0 0 5.24389 0 11.6895V45.3105C0 51.7561 5.24389 57 11.6895 57H45.3105C51.7561 57 57 51.7561 57 45.3105V11.6895C57 5.24389 51.7561 0 45.3105 0ZM41.7151 16.2539L28.4953 29.4736L15.2757 16.2539H41.7151ZM11.4394 37.6326C11.3152 37.399 11.2441 37.1326 11.2441 36.8496V17.9238C11.2441 17.6408 11.3152 17.3744 11.4394 17.1409L21.6853 27.3867L11.4394 37.6326ZM15.2757 38.5195L24.0469 29.7483L28.4954 34.1969L32.9486 29.7438L41.7243 38.5195H15.2757ZM45.7559 36.8496C45.7559 37.1326 45.6848 37.399 45.5606 37.6326L35.3101 27.3822L45.5575 17.1346C45.6839 17.3696 45.7559 17.6383 45.7559 17.9238V36.8496Z" fill="white"/>
</g>
<defs>
<clipPath id="clip0_207_1701">
<rect width="57" height="57" fill="white"/>
</clipPath>
</defs>
</svg>
