<svg width="30" height="30" viewBox="0 0 30 30" fill="none" xmlns="http://www.w3.org/2000/svg">
<path d="M30 15C30 23.2843 23.2843 30 15 30C6.71573 30 0 23.2843 0 15C0 6.71573 6.71573 0 15 0C23.2843 0 30 6.71573 30 15Z" fill="#27AAE1"/>
<g clip-path="url(#clip0_207_3116)">
<path d="M22.502 7H20.4766C20.2013 7 19.9785 7.22276 19.9785 7.49805V7.99609H15.9024C15.6961 7.41763 15.1485 7 14.5 7C13.8515 7 13.3039 7.41763 13.0976 7.99609H9.02148V7.49805C9.02148 7.22276 8.79872 7 8.52344 7H6.49805C6.22276 7 6 7.22276 6 7.49805V9.49023C6 9.76552 6.22276 9.98828 6.49805 9.98828H8.52344C8.79872 9.98828 9.02148 9.76552 9.02148 9.49023V8.98555H11.0669C9.33847 10.0653 8.19878 11.9619 8.06254 14.086C7.46496 14.2816 7.0293 14.8379 7.0293 15.5C7.0293 16.3239 7.69954 16.9941 8.52344 16.9941C9.34734 16.9941 10.0176 16.3239 10.0176 15.5C10.0176 14.8645 9.61712 14.3242 9.05668 14.1086C9.22661 11.7403 10.8791 9.7443 13.1776 9.1748C13.4262 9.65549 13.9225 9.98828 14.5 9.98828C15.0775 9.98828 15.5738 9.65549 15.8224 9.1748C18.1209 9.74427 19.7734 11.7403 19.9433 14.1085C19.3829 14.3242 18.9824 14.8645 18.9824 15.5C18.9824 16.3239 19.6527 16.9941 20.4766 16.9941C21.3005 16.9941 21.9707 16.3239 21.9707 15.5C21.9707 14.8379 21.535 14.2816 20.9375 14.086C20.8012 11.9619 19.6615 10.072 17.9331 8.99219H19.9785V9.49023C19.9785 9.76552 20.2013 9.98828 20.4766 9.98828H22.502C22.7772 9.98828 23 9.76552 23 9.49023V7.49805C23 7.22276 22.7772 7 22.502 7Z" fill="white"/>
<path d="M17.8884 23.3823C17.6279 22.5851 16.8773 21.9746 15.9941 21.9746H13.0059C12.1227 21.9746 11.3721 22.5851 11.1116 23.3823C11.0112 23.6896 11.2727 24 11.5961 24H17.4039C17.7273 24 17.9888 23.6896 17.8884 23.3823Z" fill="white"/>
<path d="M18.8987 17.2159L14.998 11.3648V16.0898C15.5765 16.2961 15.9941 16.8437 15.9941 17.4922C15.9941 18.3161 15.3239 18.9863 14.5 18.9863C13.6761 18.9863 13.0059 18.3161 13.0059 17.4922C13.0059 16.8437 13.4235 16.2961 14.0019 16.0898V11.3648L10.1012 17.2159C9.96943 17.4134 9.99569 17.6765 10.1635 17.8443C11.0778 18.7587 11.6623 19.9365 11.8878 21.2C12.2338 21.0597 12.6101 20.9785 13.0059 20.9785H15.9941C16.3899 20.9785 16.7662 21.0596 17.1122 21.1999C17.3377 19.9364 17.9222 18.7587 18.8365 17.8443C19.0043 17.6765 19.0306 17.4134 18.8987 17.2159Z" fill="white"/>
<path d="M14.5 16.9941C14.2252 16.9941 14.002 17.2174 14.002 17.4922C14.002 17.767 14.2252 17.9902 14.5 17.9902C14.7748 17.9902 14.998 17.767 14.998 17.4922C14.998 17.2174 14.7748 16.9941 14.5 16.9941Z" fill="white"/>
</g>
<defs>
<clipPath id="clip0_207_3116">
<rect width="17" height="17" fill="white" transform="translate(6 7)"/>
</clipPath>
</defs>
</svg>
