<svg width="30" height="30" viewBox="0 0 30 30" fill="none" xmlns="http://www.w3.org/2000/svg">
<path d="M30 15C30 23.2843 23.2843 30 15 30C6.71573 30 0 23.2843 0 15C0 6.71573 6.71573 0 15 0C23.2843 0 30 6.71573 30 15Z" fill="#27AAE1"/>
<g clip-path="url(#clip0_207_3118)">
<path d="M22.6683 6H17.3933C17.259 6 17.138 6.07616 17.0866 6.19291C17.0352 6.30969 17.0636 6.44409 17.1586 6.53347L18.401 7.70284L14.2192 11.6387L10.3571 8.00372C10.2274 7.88172 10.0172 7.88172 9.88751 8.00372L6.09846 11.5699C5.96881 11.6919 5.96881 11.8898 6.09846 12.0118C6.16331 12.0728 6.24828 12.1034 6.33324 12.1034C6.41821 12.1034 6.50318 12.0728 6.56802 12.0118L10.1223 8.66666L14.7478 13.0201C14.8127 13.0811 14.8976 13.1116 14.9826 13.1116C15.0676 13.1116 15.1525 13.0811 15.2174 13.0201C15.347 12.898 15.347 12.7002 15.2174 12.5781L14.6888 12.0806L18.8706 8.14481L20.7246 9.88978L17.3547 13.0615C17.2251 13.1835 17.2251 13.3814 17.3547 13.5034C17.4196 13.5644 17.5045 13.595 17.5895 13.595C17.6745 13.595 17.7594 13.5644 17.8243 13.5034L21.1942 10.3317L22.4335 11.4982C22.497 11.558 22.582 11.5897 22.6684 11.5897C22.7111 11.5897 22.7543 11.5819 22.7954 11.5659C22.9194 11.5176 23.0003 11.4036 23.0003 11.2772V6.3125C23.0003 6.13994 22.8517 6 22.6683 6ZM22.3363 10.5227L18.1949 6.625H22.3363V10.5227Z" fill="white"/>
<path d="M17.0022 13.835C16.9404 13.7766 16.8548 13.7434 16.7675 13.7434C16.6801 13.7434 16.5945 13.7766 16.5327 13.835C16.4706 13.8931 16.4354 13.9738 16.4354 14.0559C16.4354 14.1381 16.4706 14.2188 16.5327 14.2768C16.5945 14.335 16.6801 14.3684 16.7675 14.3684C16.8548 14.3684 16.9404 14.335 17.0022 14.2768C17.0639 14.2188 17.0995 14.1381 17.0995 14.0559C17.0995 13.9738 17.064 13.8931 17.0022 13.835Z" fill="white"/>
<path d="M12.3912 14.2923L10.5915 12.5986L11.1274 12.0942C11.257 11.9722 11.257 11.7743 11.1274 11.6523C10.9977 11.5303 10.7875 11.5303 10.6578 11.6523L6.09798 15.9439C5.96832 16.0659 5.96832 16.2638 6.09798 16.3858C6.16282 16.4468 6.24779 16.4774 6.33276 16.4774C6.41772 16.4774 6.50269 16.4468 6.56753 16.3858L10.1219 13.0405L11.9216 14.7343C11.9865 14.7953 12.0714 14.8258 12.1564 14.8258C12.2414 14.8258 12.3263 14.7953 12.3912 14.7343C12.5208 14.6123 12.5208 14.4144 12.3912 14.2923Z" fill="white"/>
<path d="M14.5155 17.4657L14.5 17.4657C14.3167 17.4657 14.168 17.6056 14.168 17.7782C14.168 17.9507 14.3167 18.0907 14.5 18.0907L14.5106 18.0907C14.5114 18.0907 14.5123 18.0907 14.5131 18.0907C14.6953 18.0907 14.8437 17.9523 14.8451 17.7805C14.8464 17.6079 14.6989 17.467 14.5155 17.4657Z" fill="white"/>
<path d="M22.668 21.375H22.0856V19.9746C22.0856 19.8311 21.9818 19.706 21.8338 19.6714L20.2906 19.3095L19.7373 18.0531L20.5566 16.7704C20.6351 16.6474 20.6146 16.4899 20.5068 16.3884L19.2201 15.1773C19.1122 15.0759 18.9448 15.0566 18.8142 15.1305L17.4513 15.9016L16.1164 15.3809L15.7319 13.9284C15.6951 13.7892 15.5622 13.6915 15.4097 13.6915H13.5902C13.4378 13.6915 13.3049 13.7892 13.2681 13.9284L12.8836 15.3809L11.5487 15.9016L10.1858 15.1305C10.0551 15.0565 9.88775 15.0759 9.77991 15.1773L8.49319 16.3884C8.38538 16.4899 8.36486 16.6474 8.44342 16.7704L9.26267 18.0531L8.70947 19.3095L7.16623 19.6714C7.01827 19.706 6.91445 19.8311 6.91445 19.9746V21.375H6.33203C6.14868 21.375 6 21.5149 6 21.6875C6 21.8601 6.14868 22 6.33203 22H22.668C22.8513 22 23 21.8601 23 21.6875C23 21.5149 22.8513 21.375 22.668 21.375ZM21.4215 21.375H18.0281C18.2125 20.3135 17.848 19.2229 17.0282 18.4513C16.6687 18.1129 16.2472 17.8556 15.7757 17.6864C15.6044 17.6249 15.4126 17.7057 15.3472 17.867C15.2819 18.0283 15.3678 18.2088 15.5392 18.2703C15.9227 18.408 16.2657 18.6175 16.5586 18.8932C17.2521 19.546 17.5455 20.4791 17.3532 21.375H11.6466C11.4542 20.4791 11.7477 19.5459 12.4412 18.8932C12.737 18.6148 13.0837 18.404 13.4717 18.2664C13.6433 18.2056 13.73 18.0253 13.6654 17.8638C13.6007 17.7023 13.4092 17.6207 13.2376 17.6815C12.7606 17.8506 12.3347 18.1096 11.9716 18.4512C11.1518 19.2228 10.7873 20.3134 10.9717 21.375H7.57848V20.2188L9.03238 19.8779C9.13454 19.8539 9.21854 19.7858 9.25885 19.6943L9.94021 18.1468C9.98052 18.0552 9.97232 17.9511 9.91804 17.8662L9.1462 16.6577L10.066 15.792L11.3501 16.5184C11.4403 16.5695 11.551 16.5773 11.6482 16.5393L13.2924 15.898C13.3897 15.8601 13.462 15.781 13.4875 15.6849L13.8497 14.3165H15.1503L15.5125 15.6849C15.5379 15.781 15.6103 15.8601 15.7075 15.898L17.3517 16.5393C17.449 16.5773 17.5597 16.5696 17.6499 16.5184L18.9339 15.792L19.8537 16.6577L19.0819 17.8662C19.0276 17.9512 19.0194 18.0553 19.0597 18.1468L19.7411 19.6943C19.7814 19.7858 19.8654 19.8539 19.9676 19.8779L21.4215 20.2188V21.375Z" fill="white"/>
</g>
<defs>
<clipPath id="clip0_207_3118">
<rect width="17" height="16" fill="white" transform="translate(6 6)"/>
</clipPath>
</defs>
</svg>
