<svg width="30" height="30" viewBox="0 0 30 30" fill="none" xmlns="http://www.w3.org/2000/svg">
<path d="M30 15C30 23.2843 23.2843 30 15 30C6.71573 30 0 23.2843 0 15C0 6.71573 6.71573 0 15 0C23.2843 0 30 6.71573 30 15Z" fill="#27AAE1"/>
<path d="M24.7186 22.0391L21.4868 19.0836C21.4705 19.0687 21.4513 19.0577 21.4343 19.0471C21.1439 19.4564 20.7967 19.8454 20.4049 20.2046C20.0134 20.5637 19.5883 20.882 19.1371 21.1489C19.153 21.1642 19.165 21.1821 19.1813 21.1967L22.4066 24.1588C23.045 24.743 24.0817 24.7424 24.7179 24.1588C25.3549 23.5746 25.3552 22.624 24.7186 22.0391Z" fill="white"/>
<path d="M19.9442 10.0179C17.0083 7.32726 12.2321 7.32726 9.29574 10.0186C6.35651 12.7092 6.35615 17.0907 9.29356 19.7823C12.231 22.4726 17.0083 22.4726 19.9442 19.782C22.8802 17.0907 22.8798 12.7089 19.9442 10.0179ZM10.6775 18.515C8.50381 16.5224 8.50453 13.2785 10.6783 11.2879C12.852 9.29561 16.3887 9.29561 18.5617 11.2869C20.734 13.2785 20.7333 16.5188 18.5617 18.5143C16.3883 20.5006 12.852 20.5079 10.6775 18.515Z" fill="white"/>
<path d="M12.2256 15.4566C12.0659 14.8551 11.4083 14.0207 10.855 14.2865C10.4165 14.4917 10.54 15.4324 10.7467 15.9887C11.6708 18.5183 15.0315 19.0531 15.381 18.7331C15.7246 18.4184 12.8585 17.8369 12.2256 15.4566Z" fill="white"/>
</svg>
