<svg width="80" height="80" viewBox="0 0 80 80" fill="none" xmlns="http://www.w3.org/2000/svg">
<g clip-path="url(#clip0_231_433)">
<path d="M69.9726 49.4947C70.9809 46.3825 71.493 43.1367 71.493 39.8292C71.493 36.5339 70.9845 33.2996 69.9823 30.1972C72.1863 29.3695 74.1901 28.0445 75.8539 26.2824C78.7293 23.2386 80.2466 19.2566 80.127 15.0714C79.8792 6.43067 72.649 -0.396118 64.007 -0.149536C59.8212 -0.029907 55.9332 1.71265 53.0579 4.75709C51.6058 6.29456 50.5011 8.0713 49.7778 9.99269C46.6748 8.9911 43.4406 8.48268 40.144 8.48268C36.8457 8.48268 33.609 8.99232 30.5041 9.99513C28.2647 4.06922 22.5335 -0.15625 15.8331 -0.15625C7.18867 -0.15625 0.156189 6.87623 0.156189 15.52C0.156189 22.2199 4.38227 27.9505 10.3082 30.1892C9.30476 33.2947 8.79573 36.5314 8.79573 39.8292C8.79573 43.1367 9.30781 46.3825 10.3161 49.4947C4.38593 51.7316 0.156189 57.4647 0.156189 64.1676C0.156189 66.5272 0.667664 68.7959 1.67658 70.9101C1.95551 71.4942 2.65497 71.742 3.23908 71.4631C3.82258 71.1842 4.07038 70.4847 3.79206 69.9006C2.93451 68.1037 2.49994 66.175 2.49994 64.1676C2.49994 56.8165 8.4814 50.8356 15.8331 50.8356C23.1854 50.8356 29.1669 56.8165 29.1669 64.1676C29.1669 71.5193 23.1854 77.5001 15.8331 77.5001C12.4798 77.5001 9.27485 76.2507 6.80903 73.982C6.33235 73.5438 5.59077 73.5749 5.15314 74.051C4.71491 74.5277 4.74543 75.2687 5.22211 75.7069C8.1219 78.3747 11.8902 79.8439 15.8331 79.8439C22.5433 79.8439 28.2818 75.6056 30.5139 69.6662C33.6151 70.6672 36.8487 71.1756 40.144 71.1756C43.4399 71.1756 46.6742 70.6672 49.7754 69.6668C52.0075 75.6062 57.746 79.8439 64.4562 79.8439C73.1006 79.8439 80.1331 72.8114 80.1331 64.1676C80.1331 57.4647 75.9034 51.731 69.9726 49.4947ZM54.762 6.36598C57.2071 3.77686 60.5146 2.29493 64.0747 2.193C64.2041 2.18933 64.3323 2.1875 64.4617 2.1875C71.6382 2.1875 77.5776 7.91932 77.7839 15.138C77.8858 18.6975 76.5955 22.0838 74.1504 24.6735C71.7054 27.2626 68.3979 28.7445 64.8377 28.8465C64.7083 28.8501 64.5795 28.852 64.4507 28.852C57.2742 28.852 51.3349 23.1201 51.1286 15.9015C51.026 12.3419 52.3169 8.95509 54.762 6.36598ZM49.118 67.4159C46.2305 68.3546 43.2172 68.8319 40.144 68.8319C37.0721 68.8319 34.0588 68.3546 31.1712 67.4159C31.3928 66.3673 31.5106 65.2808 31.5106 64.1676C31.5106 55.5238 24.4775 48.4919 15.8331 48.4919C14.7131 48.4919 13.6206 48.6109 12.5665 48.8349C11.6198 45.937 11.1395 42.9127 11.1395 39.8292C11.1395 36.7554 11.6174 33.7409 12.5579 30.8503C13.6145 31.0761 14.71 31.1957 15.8331 31.1957C18.5186 31.1957 21.1682 30.5048 23.4967 29.198C24.0606 28.8813 24.2614 28.1672 23.9447 27.6026C23.6279 27.038 22.9138 26.8378 22.3492 27.1546C20.3705 28.2648 18.117 28.852 15.8331 28.852C8.48079 28.852 2.49994 22.8711 2.49994 15.5194C2.49994 8.16835 8.4814 2.1875 15.8331 2.1875C23.1854 2.1875 29.1669 8.16835 29.1669 15.52C29.1669 18.5956 28.0945 21.5961 26.1474 23.9698C25.7367 24.4696 25.8099 25.2082 26.3104 25.6189C26.8103 26.0291 27.5488 25.9565 27.9596 25.456C30.249 22.6648 31.5106 19.1358 31.5106 15.5194C31.5106 14.397 31.3904 13.3014 31.1651 12.2449C34.0552 11.3043 37.0703 10.8264 40.144 10.8264C43.2172 10.8264 46.2311 11.3037 49.1199 12.2431C48.8641 13.4528 48.7494 14.7009 48.7854 15.9686C49.0289 24.4568 56.0114 31.1963 64.4501 31.1957C64.6009 31.1957 64.7528 31.1939 64.9048 31.189C65.8655 31.1615 66.8103 31.0474 67.7314 30.8527C68.6713 33.7421 69.1492 36.7566 69.1492 39.8292C69.1492 42.9127 68.6683 45.937 67.7222 48.8349C66.6681 48.6103 65.5756 48.4919 64.4562 48.4919C55.8118 48.4919 48.7793 55.5238 48.7793 64.1676C48.7793 65.2815 48.8965 66.3679 49.118 67.4159ZM64.4562 77.5001C57.1039 77.5001 51.1231 71.5193 51.1231 64.1682C51.1231 56.8165 57.1039 50.8356 64.4562 50.8356C71.8085 50.8356 77.7894 56.8165 77.7894 64.1682C77.7894 71.5193 71.8085 77.5001 64.4562 77.5001Z" fill="black"/>
<path d="M23.8129 8.60232C23.4088 8.32767 22.8772 8.33194 22.478 8.61392C22.0788 8.89529 21.6516 9.13028 21.2024 9.31644C19.5923 8.05667 17.2589 8.07132 15.6604 9.46109C14.8297 10.1837 14.3103 11.1829 14.1894 12.262C12.4701 12.0063 10.9161 11.0596 9.89682 9.60818C9.6539 9.26272 9.24374 9.07535 8.82443 9.11563C8.4039 9.15652 8.0383 9.4202 7.86679 9.80594C7.83322 9.88162 7.04464 11.6834 7.14535 13.8886C7.22225 15.5762 7.82589 17.7515 10.0274 19.4312C9.23459 19.6869 8.39718 19.8053 7.56283 19.7718C7.01962 19.7504 6.53439 20.1038 6.3879 20.6263C6.24142 21.1487 6.47274 21.7035 6.94699 21.9672C8.78537 22.9883 10.755 23.4998 12.6794 23.4998C14.5282 23.4998 16.3348 23.0274 17.9425 22.082C19.9585 20.896 21.4233 19.0802 22.2186 16.8628C22.2436 16.8067 22.2644 16.7481 22.2809 16.6877C22.6898 15.4834 22.904 14.1645 22.904 12.7655C22.904 12.7045 22.9022 12.6429 22.8998 12.5818C23.5687 11.7932 24.046 10.8588 24.2926 9.84866C24.4073 9.37381 24.2169 8.87698 23.8129 8.60232ZM20.5243 12.3999C20.5475 12.522 20.5597 12.6484 20.5597 12.7692C20.5597 13.9179 20.3888 14.9817 20.0635 15.943C20.0458 15.987 20.0311 16.0328 20.0189 16.0798C19.4104 17.7826 18.3026 19.1504 16.7541 20.0617C15.3369 20.896 13.7103 21.2513 12.0526 21.131C12.4322 20.943 12.799 20.7294 13.15 20.4914C13.5016 20.2521 13.6969 19.8414 13.659 19.4172C13.6212 18.993 13.3563 18.6231 12.9675 18.4504C10.7794 17.4781 9.60934 15.9314 9.49032 13.8544C9.46591 13.429 9.48727 13.0207 9.53305 12.6465C11.145 13.9936 13.2098 14.7284 15.365 14.6729C16.0003 14.6564 16.5069 14.137 16.5069 13.5016V12.7906C16.5069 12.7857 16.5069 12.7802 16.5069 12.7747C16.499 12.182 16.7505 11.6187 17.1985 11.2299C18.0359 10.5017 19.3091 10.5902 20.0372 11.4276C20.1837 11.5955 20.3705 11.7145 20.5743 11.7774C20.5029 11.9739 20.484 12.1881 20.5243 12.3999Z" fill="black"/>
<path d="M60.6 16.4441H62.2614V23.432C62.2614 24.079 62.7863 24.6039 63.4333 24.6039C64.0808 24.6039 64.6051 24.079 64.6051 23.432V16.4441H66.4148C67.0618 16.4441 67.5867 15.9192 67.5867 15.2722C67.5867 14.6253 67.0618 14.1004 66.4148 14.1004H64.6051V10.8215C64.6051 9.69605 65.5213 8.77991 66.6474 8.77991H68.1647C68.8117 8.77991 69.3366 8.25501 69.3366 7.60803C69.3366 6.96045 68.8117 6.43616 68.1647 6.43616H66.6474C64.2292 6.43616 62.2614 8.40332 62.2614 10.8215V14.1004H60.6C59.953 14.1004 59.4281 14.6253 59.4281 15.2722C59.4281 15.9192 59.953 16.4441 60.6 16.4441Z" fill="black"/>
<path d="M13.1744 70.2283C13.4533 70.2283 13.7323 70.1563 13.9807 70.0129L21.9574 65.4053C22.4548 65.1184 22.7637 64.5832 22.7637 64.0088C22.7637 63.4351 22.4548 62.8998 21.9574 62.613L13.9807 58.0054C13.4839 57.7179 12.8662 57.7179 12.3687 58.0054C11.8713 58.2923 11.5619 58.8275 11.5619 59.4019V68.6164C11.5619 69.1907 11.8713 69.726 12.3687 70.0129C12.6172 70.1569 12.8955 70.2283 13.1744 70.2283ZM13.9056 60.669L19.6893 64.0094L13.9056 67.3499V60.669Z" fill="black"/>
<path d="M69.5484 55.868H59.364C57.5952 55.868 56.156 57.3073 56.156 59.0767V69.2592C56.156 71.0286 57.5952 72.4678 59.364 72.4678H69.5484C71.3172 72.4678 72.7564 71.0286 72.7564 69.2592V59.0767C72.7564 57.3073 71.3172 55.868 69.5484 55.868ZM70.4126 69.2592C70.4126 69.7365 70.0251 70.124 69.5484 70.124H59.364C58.8874 70.124 58.4998 69.7365 58.4998 69.2592V59.0767C58.4998 58.6 58.8874 58.2118 59.364 58.2118H69.5484C70.0251 58.2118 70.4126 58.6 70.4126 59.0767V69.2592Z" fill="black"/>
<path d="M64.4562 60.6257C62.5031 60.6257 60.9137 62.2151 60.9137 64.1682C60.9137 66.1213 62.5031 67.7101 64.4562 67.7101C66.4093 67.7101 67.9987 66.1213 67.9987 64.1682C67.9987 62.2151 66.4093 60.6257 64.4562 60.6257ZM64.4562 65.3663C63.7952 65.3663 63.2575 64.8286 63.2575 64.1682C63.2575 63.5072 63.7952 62.9695 64.4562 62.9695C65.1172 62.9695 65.6549 63.5072 65.6549 64.1682C65.6549 64.8286 65.1172 65.3663 64.4562 65.3663Z" fill="black"/>
<path d="M48.6255 27.6709C47.9779 27.6709 47.4536 28.1958 47.4536 28.8428V29.3683C45.802 30.3418 44.0656 31.1823 42.2803 31.8701C40.8508 32.4207 39.3744 32.8784 37.8809 33.2367C37.6514 33.0603 37.3657 32.9535 37.0545 32.9535H31.6888C30.3925 32.9535 29.3384 34.0082 29.3384 35.304V41.4581C29.3384 42.7545 30.3925 43.8086 31.6888 43.8086H32.7612L33.1677 51.6223C33.2001 52.248 33.7177 52.7332 34.3372 52.7332C34.3573 52.7332 34.3781 52.7326 34.3988 52.7314C35.0452 52.6978 35.542 52.1466 35.5084 51.5003L35.108 43.8086H37.0545C37.3651 43.8086 37.6514 43.7024 37.8803 43.526C38.8312 43.7555 39.7772 44.0253 40.7019 44.3323C41.3165 44.5355 41.9794 44.2029 42.1832 43.5889C42.3871 42.9743 42.0539 42.3108 41.4398 42.1076C40.4468 41.778 39.4312 41.4881 38.4094 41.2421V35.5213C40.0098 35.1379 41.5912 34.6466 43.1226 34.057C44.6033 33.4863 46.0535 32.818 47.453 32.0612V44.704C46.9379 44.4257 46.4173 44.1602 45.893 43.9081C45.3095 43.6273 44.6094 43.8727 44.3292 44.4562C44.0485 45.0397 44.2938 45.7398 44.8773 46.0205C45.7501 46.4405 46.6132 46.9031 47.453 47.3963V47.9193C47.453 48.5669 47.9779 49.0912 48.6249 49.0912C49.2719 49.0912 49.7968 48.5669 49.7968 47.9193V28.8428C49.7974 28.1958 49.2725 27.6709 48.6255 27.6709ZM36.0663 41.4643L31.6821 41.4581L31.6888 35.2973H36.0663V41.4643Z" fill="black"/>
</g>
<defs>
<clipPath id="clip0_231_433">
<rect width="80" height="80" fill="white"/>
</clipPath>
</defs>
</svg>
