<svg width="56" height="56" viewBox="0 0 56 56" fill="none" xmlns="http://www.w3.org/2000/svg">
  <g clip-path="url(#clip0_207_1710)">
    <path d="M41.9556 0H14C6.31111 0 0 6.31111 0 14.0444V42C0 49.6889 6.31111 56 14 56H41.9556C49.6889 56 56 49.6889 56 41.9556V14.0444C56 6.31111 49.6889 0 41.9556 0ZM26.4889 11.5111C26.5778 10.1333 27.8667 10.6222 28.5333 10.5333C36.8889 10.8 44.0889 18.3111 44 26.4C44 27.2 44.2667 28.3556 43.0667 28.3556C41.9111 28.3556 42.2222 27.1556 42.0889 26.3556C40.9778 17.7778 36.9778 13.7333 28.2667 12.4C27.5556 12.3111 26.4444 12.4444 26.4889 11.5111ZM38.9778 26.7556C37.6444 26.9333 37.9111 25.7778 37.7778 25.0222C36.8889 19.7778 35.0222 17.8667 29.6444 16.7111C28.8444 16.5333 27.6 16.6667 27.8222 15.4667C28 14.3111 29.1111 14.7111 29.9556 14.8C35.3333 15.4222 39.7333 20 39.6889 25.0222C39.6 25.5556 39.9556 26.5778 38.9778 26.7556ZM35.6444 24C35.6444 24.7111 35.5556 25.3778 34.7556 25.4667C34.1778 25.5556 33.8222 25.0667 33.7333 24.4889C33.5111 22.3556 32.3556 21.0667 30.1333 20.7111C29.4667 20.6222 28.8444 20.4 29.1556 19.5111C29.3778 18.9333 29.9111 18.8444 30.4889 18.8444C32.8889 18.8 35.6444 21.6 35.6444 24ZM44.0889 40.4C43.1556 42.9333 40 45.5111 37.2889 45.4667C36.8889 45.3778 36.1333 45.2444 35.4667 44.9778C23.5556 39.9556 14.8889 31.6889 10 19.8667C8.35556 15.9111 10.0889 12.5333 14.2222 11.2C14.9778 10.9333 15.6889 10.9333 16.4444 11.2C18.2222 11.8222 22.7111 17.9111 22.8 19.6889C22.8889 21.0667 21.9111 21.8222 20.9778 22.4444C19.1556 23.6444 19.1556 25.1556 19.9556 26.8889C21.6889 30.7111 24.6667 33.3778 28.5333 35.0667C29.9111 35.6889 31.2889 35.6444 32.2222 34.2222C33.9111 31.6889 36 31.8222 38.2667 33.3778C39.4222 34.1778 40.5778 34.9333 41.6444 35.7778C43.1111 36.9778 44.9778 37.9556 44.0889 40.4Z" fill="white"/>
  </g>
  <defs>
    <clipPath id="clip0_207_1710">
      <rect width="56" height="56" fill="white"/>
    </clipPath>
  </defs>
</svg>
