<svg width="84" height="84" viewBox="0 0 84 84" fill="none" xmlns="http://www.w3.org/2000/svg">
<g clip-path="url(#clip0_222_4)">
<path d="M55.9089 6.71048H34.4817C33.7918 6.71048 33.2328 7.26944 33.2328 7.95932C33.2328 8.64921 33.7919 9.20817 34.4817 9.20817H55.9087C56.5986 9.20817 57.1577 8.64921 57.1577 7.95932C57.1577 7.26944 56.5986 6.71048 55.9089 6.71048Z" fill="#1C3A47"/>
<path d="M44.0236 12.0325H34.4815C33.7916 12.0325 33.2327 12.5916 33.2327 13.2813C33.2327 13.9712 33.7918 14.5302 34.4815 14.5302H44.0236C44.7134 14.5302 45.2724 13.9712 45.2724 13.2813C45.2724 12.5915 44.7133 12.0325 44.0236 12.0325Z" fill="#1C3A47"/>
<path d="M78.6079 12.2504C77.9182 12.2504 77.3591 12.8093 77.3591 13.4992C77.3591 14.1889 77.918 14.7481 78.6079 14.7481C79.8366 14.7481 80.8361 15.7475 80.8361 16.9762V52.4601H71.7217V14.7479H73.803C74.4927 14.7479 75.0519 14.1889 75.0519 13.4991C75.0519 12.8093 74.4929 12.2502 73.803 12.2502H71.7217V3.75227C71.7217 1.68328 70.0384 0 67.9695 0H15.6977C13.6287 0 11.9454 1.68328 11.9454 3.75227V12.2504H5.39208C2.78628 12.2504 0.66626 14.3704 0.66626 16.9762V53.709V65.2168C0.66626 67.8226 2.78628 69.9426 5.39208 69.9426H13.083C13.7727 69.9426 14.3318 69.3837 14.3318 68.6938C14.3318 68.0041 13.7729 67.4449 13.083 67.4449H5.39208C4.16342 67.4449 3.16395 66.4455 3.16395 65.2168V54.9577H13.1941H70.4727H80.8359V65.2168C80.8359 66.4455 79.8364 67.4449 78.6078 67.4449H50.9869H33.0131H18.9664C18.2767 67.4449 17.7176 68.0039 17.7176 68.6938C17.7176 69.3835 18.2766 69.9426 18.9664 69.9426H31.7643V76.5603C28.4007 76.6203 25.6822 79.3734 25.6822 82.7512C25.6822 83.4409 26.2411 84 26.931 84H57.069C57.7587 84 58.3178 83.441 58.3178 82.7512C58.3178 79.3734 55.5993 76.6201 52.2357 76.5603V69.9426H78.6079C81.2137 69.9426 83.3337 67.8226 83.3337 65.2168V53.709V16.9762C83.3336 14.3704 81.2136 12.2504 78.6079 12.2504ZM11.9454 52.4601H3.16395V16.9762C3.16395 15.7475 4.16342 14.7481 5.39208 14.7481H11.9454V52.4601ZM69.224 18.2449H26.6813C25.9916 18.2449 25.4325 18.8039 25.4325 19.4937C25.4325 20.1836 25.9914 20.7426 26.6813 20.7426H69.224V52.4601H14.4429V20.7426H20.1874C20.8771 20.7426 21.4362 20.1836 21.4362 19.4937C21.4362 18.8039 20.8773 18.2449 20.1874 18.2449H14.4429V3.75227C14.4429 3.06042 15.0057 2.49769 15.6975 2.49769H67.9695C68.6613 2.49769 69.224 3.06042 69.224 3.75227V18.2449ZM34.2618 69.9425H49.738V76.5573H34.2618V69.9425ZM55.6031 81.5023H28.3969C28.9101 80.0768 30.2759 79.055 31.876 79.055H33.0131H50.9869H52.124C53.7241 79.055 55.0899 80.0768 55.6031 81.5023Z" fill="#1C3A47"/>
<path d="M42.6697 57.4271C40.5887 57.4271 38.8956 59.1202 38.8956 61.2014C38.8956 63.2823 40.5887 64.9755 42.6697 64.9755C44.751 64.9755 46.444 63.2825 46.444 61.2014C46.444 59.1202 44.7508 57.4271 42.6697 57.4271ZM42.6697 62.4778C41.966 62.4779 41.3933 61.9052 41.3933 61.2014C41.3933 60.4974 41.966 59.9248 42.6697 59.9248C43.3737 59.9248 43.9463 60.4975 43.9463 61.2014C43.9463 61.9052 43.3735 62.4778 42.6697 62.4778Z" fill="#1C3A47"/>
<path d="M28.1146 12.9168L24.0042 5.7973C23.781 5.41094 23.3689 5.17288 22.9226 5.17288C22.4764 5.17288 22.0643 5.41094 21.8412 5.7973L17.7307 12.9168C17.5076 13.3032 17.5076 13.7793 17.7307 14.1656C17.9539 14.552 18.366 14.7901 18.8122 14.7901H27.0332C27.4793 14.7901 27.8916 14.552 28.1146 14.1656C28.3377 13.7793 28.3377 13.3032 28.1146 12.9168ZM20.9751 12.2925L22.9226 8.91941L24.8702 12.2925H20.9751Z" fill="#1C3A47"/>
<path d="M65.5439 25.3473H47.4579C46.7681 25.3473 46.209 25.9063 46.209 26.5962C46.209 27.2859 46.768 27.845 47.4579 27.845H65.5439C66.2337 27.845 66.7928 27.286 66.7928 26.5962C66.7928 25.9063 66.2337 25.3473 65.5439 25.3473Z" fill="#1C3A47"/>
<path d="M65.5439 30.8397H47.4579C46.7681 30.8397 46.209 31.3986 46.209 32.0885C46.209 32.7784 46.768 33.3373 47.4579 33.3373H65.5439C66.2337 33.3373 66.7928 32.7784 66.7928 32.0885C66.7928 31.3986 66.2337 30.8397 65.5439 30.8397Z" fill="#1C3A47"/>
<path d="M65.5439 36.332H47.4579C46.7681 36.332 46.209 36.8909 46.209 37.5808C46.209 38.2705 46.768 38.8297 47.4579 38.8297H65.5439C66.2337 38.8297 66.7928 38.2707 66.7928 37.5808C66.7928 36.8909 66.2337 36.332 65.5439 36.332Z" fill="#1C3A47"/>
<path d="M65.5439 41.8243H47.4579C46.7681 41.8243 46.209 42.3832 46.209 43.0731C46.209 43.7628 46.768 44.322 47.4579 44.322H65.5439C66.2337 44.322 66.7928 43.763 66.7928 43.0731C66.7928 42.3832 66.2337 41.8243 65.5439 41.8243Z" fill="#1C3A47"/>
<path d="M55.9087 47.3166H47.4579C46.7681 47.3166 46.209 47.8756 46.209 48.5655C46.209 49.2552 46.768 49.8143 47.4579 49.8143H55.9087C56.5984 49.8143 57.1576 49.2553 57.1576 48.5655C57.1576 47.8756 56.5986 47.3166 55.9087 47.3166Z" fill="#1C3A47"/>
<path d="M41.8335 24.2952H18.8121C18.1224 24.2952 17.5632 24.8542 17.5632 25.544V40.2688V48.5655C17.5632 49.2552 18.1222 49.8143 18.8121 49.8143H41.8335C42.5232 49.8143 43.0823 49.2553 43.0823 48.5655V41.5098V25.544C43.0823 24.8542 42.5232 24.2952 41.8335 24.2952ZM20.0611 26.7929H40.5846V39.8506C40.4449 39.8267 40.3051 39.8057 40.1655 39.7901C37.9888 39.5461 36.7374 40.4171 35.7314 41.1167C34.9762 41.6417 34.324 42.0952 33.2317 42.1838C31.4647 42.3288 30.3319 41.3894 28.8968 40.2022C27.2994 38.881 25.4875 37.3851 22.6075 37.5585C21.7439 37.611 20.8927 37.8095 20.0611 38.1499V26.7929ZM40.5848 47.3166H20.0609V40.94C20.9469 40.405 21.8518 40.1067 22.7589 40.0516C24.656 39.9359 25.8837 40.9513 27.3049 42.1268C28.8755 43.4259 30.6544 44.897 33.4337 44.6732C35.197 44.5302 36.2837 43.7745 37.1572 43.1675C38.053 42.5447 38.6456 42.1337 39.8879 42.2722C40.1187 42.2981 40.3517 42.3414 40.5848 42.402V47.3166Z" fill="#1C3A47"/>
<path d="M33.6175 29.5824C31.5107 29.5824 29.7967 31.2964 29.7967 33.4033C29.7967 35.51 31.5107 37.2241 33.6175 37.2241C35.7244 37.2241 37.4384 35.5102 37.4384 33.4033C37.4384 31.2964 35.7244 29.5824 33.6175 29.5824ZM33.6175 34.7266C32.888 34.7266 32.2942 34.1329 32.2942 33.4033C32.2942 32.6735 32.888 32.08 33.6175 32.08C34.3471 32.08 34.9409 32.6737 34.9409 33.4033C34.9409 34.1329 34.3471 34.7266 33.6175 34.7266Z" fill="#1C3A47"/>
</g>
<defs>
<clipPath id="clip0_222_4">
<rect width="84" height="84" fill="white"/>
</clipPath>
</defs>
</svg>
