<svg width="57" height="57" viewBox="0 0 57 57" fill="none" xmlns="http://www.w3.org/2000/svg">
<g clip-path="url(#clip0_207_1705)">
<path d="M38.3552 18.6447L38.2839 18.5735C35.9549 16.2437 32.8711 14.8214 29.587 14.5624C26.303 14.3034 23.0343 15.2246 20.3689 17.1605C17.7034 19.0963 15.8162 21.9197 15.0466 25.1227C14.277 28.3258 14.6755 31.6984 16.1705 34.6339L16.7794 35.8322L15.6459 41.3379L15.6297 41.4091L21.0997 40.1136L22.3466 40.7452C24.941 42.034 27.8741 42.4772 30.7334 42.0125C33.5928 41.5477 36.2345 40.1984 38.2872 38.1543C40.8691 35.5721 42.3255 32.0738 42.3388 28.4223C42.3522 24.7707 40.9214 21.2619 38.3584 18.6609L38.3552 18.6447ZM37.7981 34.0995C37.1277 35.1553 36.0687 36.4443 34.7376 36.7649C32.4058 37.3317 28.8271 36.7843 24.374 32.6356L24.3189 32.5838C20.4034 28.9565 19.3865 25.9349 19.6326 23.5383C19.7686 22.1748 20.9022 20.9474 21.8576 20.141C22.0089 20.0127 22.188 19.9215 22.3807 19.8746C22.5734 19.8277 22.7744 19.8263 22.9678 19.8706C23.1611 19.915 23.3415 20.0037 23.4945 20.1299C23.6475 20.2561 23.769 20.4163 23.8493 20.5976L25.2905 23.8557C25.3849 24.0655 25.42 24.2972 25.392 24.5256C25.364 24.7539 25.274 24.9703 25.1318 25.1511L24.4031 26.0968C24.2506 26.2907 24.1584 26.5253 24.1383 26.7712C24.1181 27.0171 24.1708 27.2636 24.2898 27.4797C24.6979 28.1922 25.6759 29.2448 26.7609 30.2229C27.9786 31.3207 29.3291 32.328 30.1841 32.6745C30.4134 32.7663 30.6648 32.7878 30.9064 32.7365C31.148 32.6852 31.3689 32.5633 31.5411 32.3863L32.3864 31.5345C32.5495 31.3737 32.7523 31.259 32.9742 31.2021C33.1961 31.1452 33.4291 31.1481 33.6494 31.2106L37.0727 32.1822C37.262 32.24 37.4355 32.3404 37.58 32.4757C37.7245 32.611 37.836 32.7777 37.9061 32.9628C37.9761 33.1479 38.0028 33.3466 37.9841 33.5437C37.9654 33.7407 37.9018 33.9309 37.7981 34.0995Z" fill="white"/>
<path d="M49.2273 0H7.77273C5.71127 0 3.73425 0.81891 2.27658 2.27658C0.81891 3.73425 0 5.71127 0 7.77273L0 49.2273C0 51.2887 0.81891 53.2658 2.27658 54.7234C3.73425 56.1811 5.71127 57 7.77273 57H49.2273C51.2887 57 53.2658 56.1811 54.7234 54.7234C56.1811 53.2658 57 51.2887 57 49.2273V7.77273C57 5.71127 56.1811 3.73425 54.7234 2.27658C53.2658 0.81891 51.2887 0 49.2273 0ZM46.1603 28.921C46.0647 31.8798 45.2274 34.7672 43.7253 37.3181C42.2232 39.8691 40.1044 42.0018 37.5633 43.5206C35.0222 45.0393 32.1404 45.8955 29.1823 46.0104C26.2242 46.1253 23.2846 45.4953 20.6334 44.1782L11.7109 46.2931C11.5757 46.3246 11.4341 46.3145 11.3047 46.2643C11.1752 46.214 11.064 46.1258 10.9855 46.0113C10.9325 45.9353 10.8956 45.8492 10.8772 45.7584C10.8589 45.6676 10.8593 45.574 10.8786 45.4834L12.7537 36.3796C11.5306 33.9779 10.8731 31.3282 10.8316 28.6333C10.79 25.9384 11.3655 23.2698 12.5139 20.8315C13.6624 18.3932 15.3534 16.2499 17.4576 14.5657C19.5617 12.8815 22.0233 11.7009 24.6539 11.1143C27.2845 10.5278 30.0145 10.5508 32.6348 11.1815C35.2552 11.8123 37.6965 13.0341 39.7721 14.7535C41.8476 16.473 43.5023 18.6444 44.6095 21.1017C45.7168 23.5589 46.2472 26.2369 46.1603 28.9307V28.921Z" fill="white"/>
</g>
<defs>
<clipPath id="clip0_207_1705">
<rect width="57" height="57" fill="white"/>
</clipPath>
</defs>
</svg>
